<?xml version="1.0" encoding="iso-8859-1"?>
<!-- Uploaded to: SVG Repo, www.svgrepo.com, Generator: SVG Repo Mixer Tools -->
<svg version="1.1" id="Layer_1" xmlns="http://www.w3.org/2000/svg" xmlns:xlink="http://www.w3.org/1999/xlink" 
	 viewBox="0 0 511.985 511.985" xml:space="preserve">
<path style="fill:#AC92EB;" d="M464.44,187.718L251.11,49.87c-3.68-2.383-8.445-2.266-12.008,0.297L47.108,188.007
	c-2.789,2.008-4.445,5.234-4.445,8.664v267.313c0,5.891,4.773,10.672,10.664,10.672h405.316c5.906,0,10.672-4.781,10.672-10.672
	V196.67C469.315,193.054,467.487,189.679,464.44,187.718z"/>
<path style="fill:#A0D468;" d="M309.319,261.325H202.658c-5.89,0-10.663,4.773-10.663,10.663v191.995
	c0,5.891,4.773,10.672,10.663,10.672h106.661c5.891,0,10.672-4.781,10.672-10.672V271.988
	C319.991,266.098,315.21,261.325,309.319,261.325z"/>
<g>
	<rect x="81.433" y="275.202" style="fill:#5D9CEC;" width="80.889" height="79.55"/>
	<rect x="352.993" y="274.812" style="fill:#5D9CEC;" width="83.997" height="79.56"/>
	<circle style="fill:#5D9CEC;" cx="257.963" cy="186.932" r="38.811"/>
</g>
<path style="fill:#434A54;" d="M234.658,367.985c0,5.891-4.773,10.672-10.664,10.672c-5.898,0-10.672-4.781-10.672-10.672
	s4.773-10.671,10.672-10.671C229.885,357.314,234.658,362.095,234.658,367.985z"/>
<path style="fill:#E6E9ED;" d="M506.251,166.538L260.923,38.542c-3.094-1.617-6.773-1.617-9.867,0L5.726,166.538
	C2.203,168.374,0,172.022,0,175.991v42.671c0,3.727,1.944,7.188,5.132,9.117c3.188,1.938,7.156,2.062,10.461,0.336l240.4-125.418
	l240.398,125.418c1.531,0.805,3.234,1.211,4.922,1.211c1.922,0,3.828-0.516,5.531-1.547c3.188-1.93,5.141-5.391,5.141-9.117v-42.671
	C511.985,172.022,509.766,168.374,506.251,166.538z"/>
<path style="fill:#434A54;" d="M479.986,474.655H32c-5.898,0-10.672-4.781-10.672-10.672S26.101,453.311,32,453.311h447.986
	c5.891,0,10.655,4.781,10.655,10.672S485.877,474.655,479.986,474.655z"/>
<g>
	<path style="fill:#967ADC;" d="M42.663,442.655h117.325c5.898,0,10.671-4.781,10.671-10.672c0-5.89-4.772-10.671-10.671-10.671
		H42.663V442.655z"/>
	<path style="fill:#967ADC;" d="M469.315,421.312H351.99c-5.891,0-10.672,4.781-10.672,10.671c0,5.891,4.781,10.672,10.672,10.672
		h117.325L469.315,421.312L469.315,421.312z"/>
</g>
<g>
	<path style="fill:#CCD1D9;" d="M117.325,368.641c-5.891,0-10.664-4.781-10.664-10.671v-85.982c0-5.89,4.773-10.663,10.664-10.663
		c5.891,0,10.664,4.773,10.664,10.663v85.982C127.989,363.86,123.216,368.641,117.325,368.641z"/>
	<path style="fill:#CCD1D9;" d="M159.988,325.643H74.662c-5.891,0-10.671-4.766-10.671-10.656s4.78-10.672,10.671-10.672h85.326
		c5.898,0,10.671,4.781,10.671,10.672S165.887,325.643,159.988,325.643z"/>
	<path style="fill:#CCD1D9;" d="M394.645,368.641c-5.875,0-10.656-4.781-10.656-10.671v-85.982c0-5.89,4.781-10.663,10.656-10.663
		c5.906,0,10.671,4.773,10.671,10.663v85.982C405.316,363.86,400.552,368.641,394.645,368.641z"/>
	<path style="fill:#CCD1D9;" d="M437.315,325.643H351.99c-5.906,0-10.672-4.766-10.672-10.656s4.766-10.672,10.672-10.672h85.325
		c5.891,0,10.672,4.781,10.672,10.672S443.206,325.643,437.315,325.643z"/>
	<path style="fill:#CCD1D9;" d="M255.993,239.989c-5.898,0-10.672-4.773-10.672-10.663v-85.334c0-5.891,4.773-10.664,10.672-10.664
		c5.891,0,10.664,4.773,10.664,10.664v85.334C266.657,235.216,261.884,239.989,255.993,239.989z"/>
	<path style="fill:#CCD1D9;" d="M298.647,197.326h-85.325c-5.891,0-10.664-4.773-10.664-10.664c0-5.898,4.773-10.672,10.664-10.672
		h85.325c5.906,0,10.672,4.773,10.672,10.672C309.319,192.554,304.554,197.326,298.647,197.326z"/>
</g>
<g>
	<path style="fill:#E6E9ED;" d="M437.315,368.641H351.99c-5.906,0-10.672-4.781-10.672-10.671v-85.982
		c0-5.89,4.766-10.663,10.672-10.663h85.325c5.891,0,10.672,4.773,10.672,10.663v85.982
		C447.987,363.86,443.206,368.641,437.315,368.641z M362.645,347.314h63.998V282.66h-63.998L362.645,347.314L362.645,347.314z"/>
	<path style="fill:#E6E9ED;" d="M159.988,368.641H74.662c-5.891,0-10.671-4.781-10.671-10.671v-85.982
		c0-5.89,4.78-10.663,10.671-10.663h85.326c5.898,0,10.671,4.773,10.671,10.663v85.982
		C170.659,363.86,165.887,368.641,159.988,368.641z M85.326,347.314h63.998V282.66H85.326V347.314z"/>
	<path style="fill:#E6E9ED;" d="M255.993,239.989c-29.413,0-53.335-23.921-53.335-53.326c0-29.413,23.922-53.334,53.335-53.334
		c29.405,0,53.326,23.921,53.326,53.334C309.319,216.068,285.398,239.989,255.993,239.989z M255.993,154.664
		c-17.648,0-31.999,14.351-31.999,31.999c0,17.64,14.351,31.999,31.999,31.999c17.64,0,31.998-14.359,31.998-31.999
		C287.991,169.015,273.633,154.664,255.993,154.664z"/>
</g>
</svg>